/* XPM */
static char * VCP_LayerBrush_xpm[] = {
"20 20 163 2",
"  	c None",
". 	c #B1B1B1",
"+ 	c #B0B0B0",
"@ 	c #B4B4B4",
"# 	c #AEAEAE",
"$ 	c #ABABAB",
"% 	c #B3B2B2",
"& 	c #BDBFBF",
"* 	c #4C4A4A",
"= 	c #1C1414",
"- 	c #878787",
"; 	c #AFAFAF",
"> 	c #6E7678",
", 	c #5A433A",
"' 	c #E8A28C",
") 	c #4E332C",
"! 	c #585858",
"~ 	c #AAAAAA",
"{ 	c #212121",
"] 	c #2A1915",
"^ 	c #C9927D",
"/ 	c #FFC0A5",
"( 	c #926154",
"_ 	c #2E2A2A",
": 	c #9B9B9B",
"< 	c #414141",
"[ 	c #812525",
"} 	c #A42728",
"| 	c #210002",
"1 	c #725448",
"2 	c #FEBCA3",
"3 	c #D99580",
"4 	c #16110F",
"5 	c #898A8A",
"6 	c #B9B9B9",
"7 	c #6F6F6F",
"8 	c #4B1414",
"9 	c #BC3232",
"0 	c #B83231",
"a 	c #B82F30",
"b 	c #4A0B0D",
"c 	c #432A24",
"d 	c #A77766",
"e 	c #433A38",
"f 	c #A3A5A5",
"g 	c #9F9F9F",
"h 	c #271010",
"i 	c #AD2E2E",
"j 	c #B33030",
"k 	c #AC2D2D",
"l 	c #B02F2F",
"m 	c #CA3737",
"n 	c #7C1B1C",
"o 	c #010000",
"p 	c #9A9A9A",
"q 	c #2F2E2E",
"r 	c #8B2525",
"s 	c #BB3333",
"t 	c #AC2E2E",
"u 	c #B12F2F",
"v 	c #5A1918",
"w 	c #696969",
"x 	c #5B5B5B",
"y 	c #5B1818",
"z 	c #C03434",
"A 	c #AE2E2E",
"B 	c #C23333",
"C 	c #882424",
"D 	c #3B3B3B",
"E 	c #898989",
"F 	c #3F1112",
"G 	c #BC3332",
"H 	c #AD2F2F",
"I 	c #B53030",
"J 	c #A42B2B",
"K 	c #2B1A1A",
"L 	c #A1A1A1",
"M 	c #ACACAC",
"N 	c #22261F",
"O 	c #441212",
"P 	c #AF292E",
"Q 	c #AF2E2E",
"R 	c #BB3131",
"S 	c #401010",
"T 	c #7D7D7D",
"U 	c #ADADAD",
"V 	c #9DA0A9",
"W 	c #665A37",
"X 	c #9E903D",
"Y 	c #190507",
"Z 	c #7F141F",
"` 	c #C33334",
" .	c #C73636",
"..	c #661B1B",
"+.	c #4C4C4C",
"@.	c #B0AFAF",
"#.	c #B2B2B2",
"$.	c #ABAFB9",
"%.	c #908362",
"&.	c #FFE86B",
"*.	c #CBB151",
"=.	c #332D14",
"-.	c #580E16",
";.	c #952628",
">.	c #2E2625",
",.	c #AAACB3",
"'.	c #666257",
").	c #D3AF4E",
"!.	c #FFFD75",
"~.	c #FFE669",
"{.	c #675A22",
"].	c #0B0404",
"^.	c #8D8D8D",
"/.	c #B7B9BE",
"(.	c #8C887E",
"_.	c #7D6221",
":.	c #97823F",
"<.	c #62532A",
"[.	c #84724D",
"}.	c #7E7B74",
"|.	c #8A8E92",
"1.	c #526374",
"2.	c #8994A1",
"3.	c #7F8B9B",
"4.	c #8F9CAC",
"5.	c #9FA8B0",
"6.	c #ACAEAF",
"7.	c #AEAFB0",
"8.	c #96A0AA",
"9.	c #5A7D9F",
"0.	c #1F588E",
"a.	c #1E588E",
"b.	c #114F88",
"c.	c #1C558B",
"d.	c #72899F",
"e.	c #6E859A",
"f.	c #70869B",
"g.	c #67819A",
"h.	c #A6AAAD",
"i.	c #AFB0B0",
"j.	c #959EA8",
"k.	c #8B99A7",
"l.	c #8596A5",
"m.	c #265A8A",
"n.	c #195B98",
"o.	c #1669B5",
"p.	c #1667B1",
"q.	c #1A5F9F",
"r.	c #346591",
"s.	c #487095",
"t.	c #426A91",
"u.	c #446C92",
"v.	c #ADAEB0",
"w.	c #9AA2AA",
"x.	c #1D568C",
"y.	c #1D63A4",
"z.	c #186CBA",
"A.	c #1770C2",
"B.	c #146DBE",
"C.	c #1667B2",
"D.	c #1A5E9D",
"E.	c #1B5C97",
"F.	c #225A8D",
". . . . . . . + + . . . . . . . . . . . ",
". . + . . + . + . + @ # $ . . . . + . . ",
". . + . . + . + . % & * = - . . ; . + . ",
". . . . . . . ; . . > , ' ) ! . . + . . ",
"+ . . . . . + ; . ~ { ] ^ / ( _ : % + + ",
". + + . + + . + + < [ } | 1 2 3 4 5 6 . ",
". . + . . + . + 7 8 9 0 a b c d e f @ . ",
". . . . . + . g h i j k l m n o p . + . ",
". . + . . + . q r s t l u 9 v w . # . . ",
". . + + . + x y z t l A B C D . + ; . . ",
". + + + + E F G H l A I J K L . # + . . ",
"+ . + + M N O P G i Q R S T . U + . + . ",
"+ . + . V W X Y Z `  ...+.. @.. . . . . ",
". . + #.$.%.&.*.=.-.;.>.~ . ; . . . . . ",
". . + #.,.'.).!.~.{.].^.. # . . . + . . ",
"+ . + . /.(._.:.<.[.}.. # . . . . . . . ",
". + . . . |.1.2.3.4.5.+ . . . . 6.7.7.. ",
". . + + . 8.9.0.a.b.c.d.e.f.g.h.. . . . ",
". . + + i.+ . j.k.l.m.n.o.p.q.r.s.t.u.v.",
". . . . . + 6.+ . . w.x.y.z.A.B.C.D.E.F."};
