/* XPM */
static char * VCP_eye_open_xpm[] = {
"20 20 137 2",
"  	c #FF0000",
". 	c #B1B1B1",
"+ 	c #9D9D9D",
"@ 	c #575757",
"# 	c #4E4E4E",
"$ 	c #505050",
"% 	c #797979",
"& 	c #ACACAC",
"* 	c #B0B0B0",
"= 	c #A5A5A5",
"- 	c #737373",
"; 	c #292929",
"> 	c #1A1A1A",
", 	c #020202",
"' 	c #000000",
") 	c #0D0D0D",
"! 	c #2B2B2B",
"~ 	c #8E8E8E",
"{ 	c #9F9F9F",
"] 	c #707070",
"^ 	c #1F1F1F",
"/ 	c #010B10",
"( 	c #03334C",
"_ 	c #033853",
": 	c #033751",
"< 	c #02202F",
"[ 	c #000304",
"} 	c #090909",
"| 	c #686868",
"1 	c #AEAEAE",
"2 	c #A2A2A2",
"3 	c #444444",
"4 	c #040404",
"5 	c #080C0E",
"6 	c #0A4564",
"7 	c #7297AA",
"8 	c #0AA1EF",
"9 	c #0AA7F8",
"0 	c #0AA6F6",
"a 	c #088ACC",
"b 	c #0D354A",
"c 	c #030506",
"d 	c #202020",
"e 	c #7F7F7F",
"f 	c #AFAFAF",
"g 	c #3F3F3F",
"h 	c #101010",
"i 	c #909192",
"j 	c #20323C",
"k 	c #7F9FB0",
"l 	c #EEF7FB",
"m 	c #78909C",
"n 	c #011925",
"o 	c #055781",
"p 	c #1A5B7D",
"q 	c #3A4850",
"r 	c #878787",
"s 	c #353535",
"t 	c #929292",
"u 	c #A1A1A1",
"v 	c #464646",
"w 	c #0A0A0A",
"x 	c #989898",
"y 	c #F1F1F1",
"z 	c #EFF0F1",
"A 	c #233742",
"B 	c #1479AE",
"C 	c #7BBDE0",
"D 	c #1B5C7F",
"E 	c #4A5B64",
"F 	c #EFEFEF",
"G 	c #454545",
"H 	c #2E2E2E",
"I 	c #8C8C8C",
"J 	c #121212",
"K 	c #070707",
"L 	c #D6D6D6",
"M 	c #FAFAFA",
"N 	c #F0F1F2",
"O 	c #30434D",
"P 	c #1573A5",
"Q 	c #0998E2",
"R 	c #021E2C",
"S 	c #033C59",
"T 	c #0BA3F2",
"U 	c #1B5979",
"V 	c #080808",
"W 	c #AAAAAA",
"X 	c #666666",
"Y 	c #111111",
"Z 	c #676767",
"` 	c #CDCDCD",
" .	c #F2F2F2",
"..	c #9AA3A8",
"+.	c #224659",
"@.	c #0E93D8",
"#.	c #099AE4",
"$.	c #0994DC",
"%.	c #099DE9",
"&.	c #1381BA",
"*.	c #213E4D",
"=.	c #838383",
"-.	c #181818",
";.	c #555555",
">.	c #A4A4A4",
",.	c #A8A8A8",
"'.	c #5D5D5D",
").	c #060606",
"!.	c #0C0C0C",
"~.	c #909597",
"{.	c #3E4F58",
"].	c #0D9AE4",
"^.	c #0BA0EC",
"/.	c #135475",
"(.	c #131F25",
"_.	c #050708",
":.	c #1D1D1D",
"<.	c #4F4F4F",
"[.	c #A7A7A7",
"}.	c #010101",
"|.	c #191A1A",
"1.	c #1C2023",
"2.	c #0B151A",
"3.	c #062D42",
"4.	c #04334B",
"5.	c #050E13",
"6.	c #262626",
"7.	c #A9A9A9",
"8.	c #636363",
"9.	c #1E1E1E",
"0.	c #999999",
"a.	c #A0A0A0",
"b.	c #535353",
"c.	c #222222",
"d.	c #939393",
"e.	c #7D7D7D",
"f.	c #9B9B9B",
". . . . . . . . . . . . . . . . . . . . ",
". . . . . . . . . . . . . . . . . . . . ",
". . . . . . . . . . . . . . . . . . . . ",
". . . . . . . . . . . . . . . . . . . . ",
". . . . . . . . + @ # $ % & . . . . . . ",
". . . . * = - ; > , ' ' ) ! ~ & . . . . ",
". . * { ] ^ ' ' / ( _ : < [ } | 1 . . . ",
". * 2 3 4 ' 5 6 7 8 9 0 a b c d e f . . ",
"* { g h ; i j k l m n o 9 p q r s t f . ",
"u v w x y z A B C ' ' n 9 D E F G H t . ",
"I J K L M N O P Q R ' S T U E F 3 V | . ",
"W X Y Z `  ...+.@.#.$.%.&.*.q =.-.;.>.. ",
". ,.'.).!.] ~.{.D ].9 ^./.(._.:.<.,.* . ",
". . [.;.!.}.|.1.2.3._ 4.5.}.6.e 1 . . . ",
". . . 7.8.9., ' ' ' ' ' ) ! 0.1 . . . . ",
". . . . . a.b.c.}.4 H <.% & . . . . . . ",
". . . . . . 1 d.e.e f.* . . . . . . . . ",
". . . . . . . . . . . . . . . . . . . . ",
". . . . . . . . . . . . . . . . . . . . ",
". . . . . . . . . . . . . . . . . . . . "};
