/* XPM */
static char * eye_closed_xpm[] = {
"20 20 69 1",
" 	c None",
".	c #B1B1B1",
"+	c #8B8B8B",
"@	c #2A2A2A",
"#	c #222222",
"$	c #242424",
"%	c #535353",
"&	c #A7A7A7",
"*	c #AFAFAF",
"=	c #9A9A9A",
"-	c #4A4A4A",
";	c #0A0A0A",
">	c #030303",
",	c #000000",
"'	c #010101",
")	c #727272",
"!	c #8F8F8F",
"~	c #474747",
"{	c #050505",
"]	c #3D3D3D",
"^	c #ABABAB",
"/	c #949494",
"(	c #1A1A1A",
"_	c #060606",
":	c #5B5B5B",
"<	c #ADADAD",
"[	c #8E8E8E",
"}	c #161616",
"|	c #0C0C0C",
"1	c #797979",
"2	c #939393",
"3	c #1C1C1C",
"4	c #0E0E0E",
"5	c #787878",
"6	c #6F6F6F",
"7	c #A4A4A4",
"8	c #3A3A3A",
"9	c #383838",
"0	c #A9A9A9",
"a	c #6C6C6C",
"b	c #181818",
"c	c #0F0F0F",
"d	c #202020",
"e	c #0D0D0D",
"f	c #232323",
"g	c #696969",
"h	c #292929",
"i	c #989898",
"j	c #A0A0A0",
"k	c #303030",
"l	c #1F1F1F",
"m	c #686868",
"n	c #767676",
"o	c #888888",
"p	c #323232",
"q	c #040404",
"r	c #9E9E9E",
"s	c #2C2C2C",
"t	c #4C4C4C",
"u	c #555555",
"v	c #151515",
"w	c #080808",
"x	c #A1A1A1",
"y	c #373737",
"z	c #848484",
"A	c #909090",
"B	c #272727",
"C	c #7A7A7A",
"D	c #585858",
"....................",
"....................",
"....................",
"....................",
"........+@#$%&......",
"....*=-;>,,,';)&....",
"..*!~{,,,,,,,,,]^...",
".*/(,,,,,,,,,,,_:<..",
"*[},,,,,,,,,,,,'|1<.",
"23,,,,,,,,,,,,,,'45.",
"6',,,,,,,,,,,,,,,,].",
"78'90ab_,,,cdefg,hi.",
".jk,lm/nmmmoip,qfj*.",
"..rh,>stuuu]v,w:^...",
"...xy{,,,,,,';z^....",
".....AB_,,|f%&......",
"......^CD:o*........",
"....................",
"....................",
"...................."};
