/* XPM */
static char * VCP_Blank_xpm[] = {
"20 20 3 1",
" 	c None",
".	c #B1B1B1",
"+	c #B0B0B0",
".......+............",
"..+..+.+..+......+..",
"..+..+.+..+.........",
".......+..+......+..",
"+.....++..++...++...",
".++.++.++.+.+++..+..",
"..+..+.+..+.........",
".......+............",
"..+..+.+..++........",
"..++.+.+..+......+..",
".+++++.++.+.+++..+..",
"+.++.+++..+....++.+.",
"..+..+.+..+.........",
"..+..+.+..+.........",
".......+..+......+..",
"..+..+.+.++.........",
".......+...+........",
"..++.+.+..+.........",
"..++.+.+..+.........",
".......+..++........"};
