/* XPM */
static char * VCPIcon_xpm[] = {
"32 32 766 2",
"  	c None",
". 	c #FFFFFF",
"+ 	c #F5F5F5",
"@ 	c #E8E8E8",
"# 	c #DCDCDC",
"$ 	c #B1CAA9",
"% 	c #64BB51",
"& 	c #60CB50",
"* 	c #CEEECB",
"= 	c #B3D6B2",
"- 	c #37DB3E",
"; 	c #00EE18",
"> 	c #00EE22",
", 	c #FAFAFA",
"' 	c #DEDEDE",
") 	c #DBDBDB",
"! 	c #B4D1A5",
"~ 	c #6CC447",
"{ 	c #2FC901",
"] 	c #24E000",
"^ 	c #1BED00",
"/ 	c #0FC403",
"( 	c #048800",
"_ 	c #00D009",
": 	c #00DC17",
"< 	c #00E021",
"[ 	c #DFDFDF",
"} 	c #EAEAEA",
"| 	c #F2F2F2",
"1 	c #F6F6F6",
"2 	c #F4F4F4",
"3 	c #F3F3F3",
"4 	c #F1F1F1",
"5 	c #F0F0F0",
"6 	c #EFEFEF",
"7 	c #EEEEEE",
"8 	c #E9EBE7",
"9 	c #CDDEBC",
"0 	c #A5D283",
"a 	c #64C129",
"b 	c #40C400",
"c 	c #39D200",
"d 	c #2DE400",
"e 	c #24F300",
"f 	c #18FA00",
"g 	c #0AEE00",
"h 	c #029E00",
"i 	c #00AC08",
"j 	c #00D417",
"k 	c #00E023",
"l 	c #E7E7E7",
"m 	c #F7F7F7",
"n 	c #ECEDEA",
"o 	c #DEE4CB",
"p 	c #C9DA9F",
"q 	c #ADCF6D",
"r 	c #8BC637",
"s 	c #67BF08",
"t 	c #59C400",
"u 	c #51C800",
"v 	c #47CE00",
"w 	c #3FD600",
"x 	c #35E000",
"y 	c #2AE900",
"z 	c #21EF00",
"A 	c #15F500",
"B 	c #09FB00",
"C 	c #02DE04",
"D 	c #008208",
"E 	c #00BE16",
"F 	c #00E726",
"G 	c #F0F0E7",
"H 	c #DEDD91",
"I 	c #D2D669",
"J 	c #BECC42",
"K 	c #ADC422",
"L 	c #97BB02",
"M 	c #8EBE00",
"N 	c #84C200",
"O 	c #79C700",
"P 	c #6CC600",
"Q 	c #5DC400",
"R 	c #53C400",
"S 	c #48C800",
"T 	c #40CF00",
"U 	c #3AD700",
"V 	c #30DE00",
"W 	c #26E200",
"X 	c #1EE600",
"Y 	c #12EE00",
"Z 	c #08FB00",
"` 	c #01E805",
" .	c #00910A",
"..	c #00A914",
"+.	c #00E127",
"@.	c #EBEBEB",
"#.	c #F3F3F0",
"$.	c #E4DD8D",
"%.	c #DDD419",
"&.	c #DCDE00",
"*.	c #C9DB00",
"=.	c #B9D400",
"-.	c #A9CE00",
";.	c #9ACC00",
">.	c #8BC900",
",.	c #7AC400",
"'.	c #6CC200",
").	c #60C900",
"!.	c #58CF00",
"~.	c #50D500",
"{.	c #47D700",
"].	c #3ED400",
"^.	c #33D200",
"/.	c #2AD500",
"(.	c #22D700",
"_.	c #1BDB00",
":.	c #10EA00",
"<.	c #06F700",
"[.	c #01DA06",
"}.	c #00A10D",
"|.	c #009712",
"1.	c #00D526",
"2.	c #E9DD9F",
"3.	c #E5CE21",
"4.	c #EEDE00",
"5.	c #E8E300",
"6.	c #D8E300",
"7.	c #C5DD00",
"8.	c #B2D400",
"9.	c #9BCB00",
"0.	c #86BF00",
"a.	c #7BC800",
"b.	c #77DF00",
"c.	c #72F000",
"d.	c #69F200",
"e.	c #60EE00",
"f.	c #51E700",
"g.	c #46DE00",
"h.	c #3AD200",
"i.	c #2EC700",
"j.	c #25C800",
"k.	c #1FCB00",
"l.	c #18D900",
"m.	c #0EEB00",
"n.	c #05ED00",
"o.	c #01DA07",
"p.	c #009B0E",
"q.	c #007D10",
"r.	c #00C423",
"s.	c #E8DCA5",
"t.	c #F4CF00",
"u.	c #F8E100",
"v.	c #F2E700",
"w.	c #E7E900",
"x.	c #D0E200",
"y.	c #B9D600",
"z.	c #9EC900",
"A.	c #90D100",
"B.	c #90EA00",
"C.	c #8BF600",
"D.	c #7DF300",
"E.	c #68E000",
"F.	c #50B900",
"G.	c #45AD00",
"H.	c #3EB100",
"I.	c #38B400",
"J.	c #32B700",
"K.	c #29BB00",
"L.	c #22C300",
"M.	c #1ECE00",
"N.	c #17DE00",
"O.	c #0CE500",
"P.	c #04E200",
"Q.	c #00D408",
"R.	c #00960E",
"S.	c #00610C",
"T.	c #00B521",
"U.	c #E1C234",
"V.	c #FEDC00",
"W.	c #FAE800",
"X.	c #F1EA00",
"Y.	c #DAE400",
"Z.	c #BDD500",
"`.	c #ABD800",
" +	c #ABF500",
".+	c #A0FB00",
"++	c #8EED00",
"@+	c #76D300",
"#+	c #52A100",
"$+	c #3C8300",
"%+	c #388300",
"&+	c #348B00",
"*+	c #2C8300",
"=+	c #2B8D00",
"-+	c #2DA700",
";+	c #29BC00",
">+	c #21C500",
",+	c #1DD300",
"'+	c #15DD00",
")+	c #0BDB00",
"!+	c #03D801",
"~+	c #00CD09",
"{+	c #00980E",
"]+	c #005D0C",
"^+	c #00AD20",
"/+	c #E7DDB6",
"(+	c #F4CB00",
"_+	c #FDDF00",
":+	c #F6E900",
"<+	c #E0E100",
"[+	c #BCCF00",
"}+	c #A8CF00",
"|+	c #BCFD00",
"1+	c #AFFE00",
"2+	c #94E900",
"3+	c #61A100",
"4+	c #3D6D00",
"5+	c #5BB700",
"6+	c #63DF00",
"7+	c #62F100",
"8+	c #55F300",
"9+	c #49EB00",
"0+	c #35BE00",
"a+	c #248D00",
"b+	c #28BB00",
"c+	c #21C700",
"d+	c #1CCF00",
"e+	c #13D500",
"f+	c #09D300",
"g+	c #03CC01",
"h+	c #00C309",
"i+	c #009B0F",
"j+	c #005B0C",
"k+	c #00A31F",
"l+	c #E3D084",
"m+	c #FCD400",
"n+	c #F9DF00",
"o+	c #E9E000",
"p+	c #C8D100",
"q+	c #B0CD00",
"r+	c #C4FC00",
"s+	c #BCFE00",
"t+	c #A8F300",
"u+	c #80C900",
"v+	c #508500",
"w+	c #5AA300",
"x+	c #6EE400",
"y+	c #6EFD00",
"z+	c #63FB00",
"A+	c #56FE00",
"B+	c #4CFD00",
"C+	c #3CE400",
"D+	c #219600",
"E+	c #219F00",
"F+	c #21C900",
"G+	c #1AC900",
"H+	c #11CB00",
"I+	c #08C800",
"J+	c #02C101",
"K+	c #00BB0A",
"L+	c #009B10",
"M+	c #00610D",
"N+	c #00951D",
"O+	c #DDC560",
"P+	c #F6D100",
"Q+	c #F0DC00",
"R+	c #DAD600",
"S+	c #B7C800",
"T+	c #D0F900",
"U+	c #C6FF00",
"V+	c #B5F400",
"W+	c #9ADF00",
"X+	c #70B000",
"Y+	c #5D9B00",
"Z+	c #6BC400",
"`+	c #73F200",
" @	c #59CD00",
".@	c #41A800",
"+@	c #41C300",
"@@	c #4BFE00",
"#@	c #3CEF00",
"$@	c #23A900",
"%@	c #167400",
"&@	c #20C700",
"*@	c #19C800",
"=@	c #10C600",
"-@	c #07C100",
";@	c #02BB01",
">@	c #00B40A",
",@	c #009610",
"'@	c #00620D",
")@	c #00931D",
"!@	c #D7B93C",
"~@	c #EFCC00",
"{@	c #E4D500",
"]@	c #C9CA00",
"^@	c #C3DB00",
"/@	c #D5FF00",
"(@	c #AFEC00",
"_@	c #96D800",
":@	c #77B900",
"<@	c #67C000",
"[@	c #6CE600",
"}@	c #4BAD00",
"|@	c #4DC800",
"1@	c #3EBD00",
"2@	c #4AFE00",
"3@	c #3AED00",
"4@	c #21A600",
"5@	c #0D4D00",
"6@	c #1EC100",
"7@	c #0EC100",
"8@	c #07BA00",
"9@	c #02B402",
"0@	c #00AD0A",
"a@	c #008F0F",
"b@	c #005E0D",
"c@	c #00981E",
"d@	c #F1F1F0",
"e@	c #D0AB0F",
"f@	c #E8C900",
"g@	c #D9CD00",
"h@	c #C2C800",
"i@	c #D7F200",
"j@	c #D6FF00",
"k@	c #C1F800",
"l@	c #ABE600",
"m@	c #97D900",
"n@	c #81C900",
"o@	c #579000",
"p@	c #60B200",
"q@	c #64D400",
"r@	c #64E900",
"s@	c #50D400",
"t@	c #4FEF00",
"u@	c #49F900",
"v@	c #33CE00",
"w@	c #197E00",
"x@	c #0C4300",
"y@	c #1EC200",
"z@	c #18C600",
"A@	c #0EBD00",
"B@	c #06B400",
"C@	c #01AE02",
"D@	c #00A70A",
"E@	c #00850E",
"F@	c #009B1F",
"G@	c #E2DED0",
"H@	c #DBB200",
"I@	c #E2C700",
"J@	c #CEC500",
"K@	c #CCD600",
"L@	c #E1FE00",
"M@	c #D6FE00",
"N@	c #BEF300",
"O@	c #A9E200",
"P@	c #9ADB00",
"Q@	c #82C900",
"R@	c #63A300",
"S@	c #5CA800",
"T@	c #59BC00",
"U@	c #5CD700",
"V@	c #54DD00",
"W@	c #4BE200",
"X@	c #3CCC00",
"Y@	c #259600",
"Z@	c #104D00",
"`@	c #105700",
" #	c #1EC500",
".#	c #17C500",
"+#	c #0DBB00",
"@#	c #06B100",
"##	c #01AA02",
"$#	c #00A00A",
"%#	c #00760D",
"&#	c #005F0E",
"*#	c #009D20",
"=#	c #DCCFA1",
"-#	c #E4BC00",
";#	c #DCC500",
">#	c #CEC800",
",#	c #E0F000",
"'#	c #E2FF00",
")#	c #D4FC00",
"!#	c #BFF200",
"~#	c #AAE300",
"{#	c #9DDF00",
"]#	c #88D100",
"^#	c #6BAF00",
"/#	c #4F8F00",
"(#	c #499700",
"_#	c #419700",
":#	c #399100",
"<#	c #2F8A00",
"[#	c #237600",
"}#	c #124700",
"|#	c #092700",
"1#	c #21A700",
"2#	c #0DB800",
"3#	c #05AE00",
"4#	c #01A402",
"5#	c #00960A",
"6#	c #00660B",
"7#	c #00650E",
"8#	c #00981F",
"9#	c #DDC87B",
"0#	c #E7C100",
"a#	c #D4C100",
"b#	c #E1DE00",
"c#	c #ECFC00",
"d#	c #D1F700",
"e#	c #BCED00",
"f#	c #ABE300",
"g#	c #A0E000",
"h#	c #91DD00",
"i#	c #60A800",
"j#	c #397100",
"k#	c #245100",
"l#	c #1B4200",
"m#	c #113000",
"n#	c #0B2400",
"o#	c #123C00",
"p#	c #238C00",
"q#	c #28CA00",
"r#	c #20CE00",
"s#	c #0DB700",
"t#	c #05A900",
"u#	c #019B02",
"v#	c #008B09",
"w#	c #005609",
"x#	c #006A0F",
"y#	c #008E1D",
"z#	c #D5BA54",
"A#	c #E2BF00",
"B#	c #D9CA00",
"C#	c #F4F200",
"D#	c #DDF900",
"E#	c #CBEF00",
"F#	c #B7E500",
"G#	c #ABE200",
"H#	c #A4E500",
"I#	c #97E600",
"J#	c #86DA00",
"K#	c #6FC200",
"L#	c #5BB000",
"M#	c #4BA100",
"N#	c #3D8E00",
"O#	c #348700",
"P#	c #3CB300",
"Q#	c #3DCA00",
"R#	c #35D300",
"S#	c #29D300",
"T#	c #20CF00",
"U#	c #17C400",
"V#	c #0CB500",
"W#	c #05A700",
"X#	c #019602",
"Y#	c #007E08",
"Z#	c #004908",
"`#	c #007410",
" $	c #00891C",
".$	c #D0B031",
"+$	c #DDBD00",
"@$	c #EDDE00",
"#$	c #F9F700",
"$$	c #E8F700",
"%$	c #D6F000",
"&$	c #C2E300",
"*$	c #B4E000",
"=$	c #AEE500",
"-$	c #A8EA00",
";$	c #9CEC00",
">$	c #8DE500",
",$	c #7FDE00",
"'$	c #72DB00",
")$	c #65D900",
"!$	c #5CD600",
"~$	c #52D400",
"{$	c #48D800",
"]$	c #41D900",
"^$	c #36D600",
"/$	c #29D200",
"($	c #17C200",
"_$	c #0CB300",
":$	c #059E00",
"<$	c #018702",
"[$	c #006B07",
"}$	c #003F07",
"|$	c #007911",
"1$	c #00881C",
"2$	c #CCAA1C",
"3$	c #E5C700",
"4$	c #FAEC00",
"5$	c #FBF900",
"6$	c #E9F700",
"7$	c #D3EB00",
"8$	c #C5E500",
"9$	c #BBE700",
"0$	c #B3EB00",
"a$	c #ACEF00",
"b$	c #A1F200",
"c$	c #94F000",
"d$	c #89EE00",
"e$	c #7BEB00",
"f$	c #6CE800",
"g$	c #63E600",
"h$	c #57E400",
"i$	c #4BE100",
"j$	c #42DD00",
"k$	c #36D800",
"l$	c #1FCE00",
"m$	c #16BE00",
"n$	c #0BA600",
"o$	c #048B00",
"p$	c #007302",
"q$	c #005805",
"r$	c #003E07",
"s$	c #006F10",
"t$	c #007217",
"u$	c #DADAD9",
"v$	c #D5AF03",
"w$	c #F6D800",
"x$	c #FEEF00",
"y$	c #F8F500",
"z$	c #C9D400",
"A$	c #CCE300",
"B$	c #CCEC00",
"C$	c #C2EF00",
"D$	c #B8F200",
"E$	c #B1F500",
"F$	c #A5F900",
"G$	c #99F800",
"H$	c #8DF500",
"I$	c #7FF300",
"J$	c #71F200",
"K$	c #68F100",
"L$	c #5CF000",
"M$	c #4FEE00",
"N$	c #45E800",
"O$	c #38E100",
"P$	c #2AD900",
"Q$	c #20D100",
"R$	c #15B800",
"S$	c #098300",
"T$	c #047400",
"U$	c #016201",
"V$	c #004E04",
"W$	c #004507",
"X$	c #00680F",
"Y$	c #006615",
"Z$	c #D0C9B2",
"`$	c #DDB600",
" %	c #FBDD00",
".%	c #FBEC00",
"+%	c #E7E300",
"@%	c #CFD900",
"#%	c #D7EF00",
"$%	c #D2F300",
"%%	c #C7F500",
"&%	c #BDF800",
"*%	c #B5FB00",
"=%	c #A8FD00",
"-%	c #9DFE00",
";%	c #91FD00",
">%	c #83FC00",
",%	c #75FA00",
"'%	c #6BF900",
")%	c #5EF700",
"!%	c #51F400",
"~%	c #46ED00",
"{%	c #39E500",
"]%	c #2ADB00",
"^%	c #1EC900",
"/%	c #108700",
"(%	c #087300",
"_%	c #047500",
":%	c #015401",
"<%	c #003D03",
"[%	c #00580C",
"}%	c #004D0F",
"|%	c #CBB467",
"1%	c #EEC600",
"2%	c #FFE100",
"3%	c #FCED00",
"4%	c #F1EC00",
"5%	c #E6F000",
"6%	c #DDF500",
"7%	c #D7F900",
"8%	c #C9F900",
"9%	c #BEFA00",
"0%	c #A8FE00",
"a%	c #9DFF00",
"b%	c #91FE00",
"c%	c #83FD00",
"d%	c #75FC00",
"e%	c #6CFB00",
"f%	c #5EF800",
"g%	c #43E500",
"h%	c #2FBE00",
"i%	c #1B8D00",
"j%	c #148200",
"k%	c #13A000",
"l%	c #0B9A00",
"m%	c #046800",
"n%	c #003900",
"o%	c #002402",
"p%	c #004807",
"q%	c #00490A",
"r%	c #00420D",
"s%	c #CFA40E",
"t%	c #FBD200",
"u%	c #FFE200",
"v%	c #FFF000",
"w%	c #FDF800",
"x%	c #F4FE00",
"y%	c #E5FF00",
"z%	c #DCFF00",
"A%	c #CEFF00",
"B%	c #C1FF00",
"C%	c #B7FF00",
"D%	c #A8FF00",
"E%	c #9BFD00",
"F%	c #8EF900",
"G%	c #7BEF00",
"H%	c #66DD00",
"I%	c #53C200",
"J%	c #3DA100",
"K%	c #2F8C00",
"L%	c #288400",
"M%	c #269300",
"N%	c #24B100",
"O%	c #1CB000",
"P%	c #139D00",
"Q%	c #086D00",
"R%	c #023800",
"S%	c #001E00",
"T%	c #002702",
"U%	c #003305",
"V%	c #003207",
"W%	c #003109",
"X%	c #B0A064",
"Y%	c #A28700",
"Z%	c #AC9800",
"`%	c #AAA000",
" &	c #ABA700",
".&	c #A4AB00",
"+&	c #A1B300",
"@&	c #99B100",
"#&	c #8DAE00",
"$&	c #83AC00",
"%&	c #7BAC00",
"&&	c #74B000",
"*&	c #67A800",
"=&	c #569500",
"-&	c #4B8D00",
";&	c #428C00",
">&	c #429700",
",&	c #43A800",
"'&	c #41BF00",
")&	c #3ABF00",
"!&	c #2FB300",
"~&	c #21A200",
"{&	c #179100",
"]&	c #0E6F00",
"^&	c #053900",
"/&	c #011C00",
"(&	c #001800",
"_&	c #001D01",
":&	c #001D03",
"<&	c #001C04",
"[&	c #0C2410",
"}&	c #D8D7D1",
"|&	c #A99126",
"1&	c #BDA500",
"2&	c #C8BA00",
"3&	c #C7C100",
"4&	c #C1C500",
"5&	c #B5C600",
"6&	c #AFC800",
"7&	c #A7CA00",
"8&	c #9DCC00",
"9&	c #96CD00",
"0&	c #8DD000",
"a&	c #85D400",
"b&	c #7BD200",
"c&	c #6ECD00",
"d&	c #5FC600",
"e&	c #53BF00",
"f&	c #49B700",
"g&	c #3BAB00",
"h&	c #2F9700",
"i&	c #238300",
"j&	c #176D00",
"k&	c #0E5700",
"l&	c #073400",
"m&	c #021600",
"n&	c #414C40",
"o&	c #5A605A",
"p&	c #3E453E",
"q&	c #1C251D",
"r&	c #545B55",
"s&	c #C8C8C8",
"t&	c #DDDCDB",
"u&	c #A29E87",
"v&	c #7B7534",
"w&	c #6D6800",
"x&	c #808100",
"y&	c #8B9700",
"z&	c #8EA200",
"A&	c #88A300",
"B&	c #7FA300",
"C&	c #78A300",
"D&	c #6FA200",
"E&	c #629B00",
"F&	c #579300",
"G&	c #4C8B00",
"H&	c #408300",
"I&	c #367B00",
"J&	c #2F7200",
"K&	c #236400",
"L&	c #195000",
"M&	c #113D00",
"N&	c #0A2B00",
"O&	c #051A00",
"P&	c #21291F",
"Q&	c #A3A5A3",
"R&	c #E9E9E9",
"S&	c #E3E3E3",
"T&	c #DDDDDD",
"U&	c #C9C8C5",
"V&	c #9E9D8A",
"W&	c #878962",
"X&	c #6A7039",
"Y&	c #495213",
"Z&	c #354301",
"`&	c #304000",
" *	c #2E4000",
".*	c #2C4200",
"+*	c #294300",
"@*	c #254200",
"#*	c #203F00",
"$*	c #1B3B00",
"%*	c #163400",
"&*	c #0F2700",
"**	c #091A00",
"=*	c #040F00",
"-*	c #282D26",
";*	c #7C7C7B",
">*	c #E0E0E0",
",*	c #E6E6E6",
"'*	c #E5E5E5",
")*	c #E4E4E4",
"!*	c #D3D3D3",
"~*	c #ABABAB",
"{*	c #828281",
"]*	c #5A5B58",
"^*	c #33342F",
"/*	c #0A0C07",
"(*	c #12150F",
"_*	c #2D2F29",
":*	c #454744",
"<*	c #5D5D5C",
"[*	c #767676",
"}*	c #B7B7B7",
"|*	c #E1E1E1",
"1*	c #E2E2E2",
". . . . + @ # # # # # # # # # # # # # # # # # # $ % & * = - ; > ",
". . , ' # # # # # # # # # # # # # # # # # ) ! ~ { ] ^ / ( _ : < ",
". , # # [ } | 1 + 2 2 3 | 4 5 5 6 7 8 9 0 a b c d e f g h i j k ",
". ' # l m m 1 + 2 2 3 | 4 n o p q r s t u v w x y z A B C D E F ",
"+ # [ m m 1 + + G H I J K L M N O P Q R S T U V W X Y Z `  ...+.",
"@ # @.m 1 + #.$.%.&.*.=.-.;.>.,.'.).!.~.{.].^./.(._.:.<.[.}.|.1.",
"# # | 1 2 2.3.4.5.6.7.8.9.0.a.b.c.d.e.f.g.h.i.j.k.l.m.n.o.p.q.r.",
"# # 1 1 s.t.u.v.w.x.y.z.A.B.C.D.E.F.G.H.I.J.K.L.M.N.O.P.Q.R.S.T.",
"# # 1 2 U.V.W.X.Y.Z.`. +.+++@+#+$+%+&+*+=+-+;+>+,+'+)+!+~+{+]+^+",
"# # + /+(+_+:+<+[+}+|+1+2+3+4+5+6+7+8+9+0+a+b+c+d+e+f+g+h+i+j+k+",
"# # 2 l+m+n+o+p+q+r+s+t+u+v+w+x+y+z+A+B+C+D+E+F+G+H+I+J+K+L+M+N+",
"# # 2 O+P+Q+R+S+T+U+V+W+X+Y+Z+`+ @.@+@@@#@$@%@&@*@=@-@;@>@,@'@)@",
"# # 3 !@~@{@]@^@/@r+(@_@:@Y+<@[@}@|@1@2@3@4@5@6@*@7@8@9@0@a@b@c@",
"# # d@e@f@g@h@i@j@k@l@m@n@o@p@q@r@s@t@u@v@w@x@y@z@A@B@C@D@E@b@F@",
"# # G@H@I@J@K@L@M@N@O@P@Q@R@S@T@U@V@W@X@Y@Z@`@ #.#+#@###$#%#&#*#",
"# # =#-#;#>#,#'#)#!#~#{#]#^#/#(#_#:#<#[#}#|#1#k..#2#3#4#5#6#7#8#",
"# # 9#0#a#b#c#'#d#e#f#g#h#O i#j#k#l#m#n#o#p#q#r#.#s#t#u#v#w#x#y#",
"# # z#A#B#C#c#D#E#F#G#H#I#J#K#L#M#N#O#P#Q#R#S#T#U#V#W#X#Y#Z#`# $",
"# # .$+$@$#$$$%$&$*$=$-$;$>$,$'$)$!$~${$]$^$/$r#($_$:$<$[$}$|$1$",
"# # 2$3$4$5$6$7$8$9$0$a$b$c$d$e$f$g$h$i$j$k$S#l$m$n$o$p$q$r$s$t$",
"# u$v$w$x$y$z$A$B$C$D$E$F$G$H$I$J$K$L$M$N$O$P$Q$R$S$T$U$V$W$X$Y$",
"# Z$`$ %.%+%@%#%$%%%&%*%=%-%;%>%,%'%)%!%~%{%]%^%/%(%_%:%<%Z#[%}%",
"# |%1%2%3%4%5%6%7%8%9%*%0%a%b%c%d%e%f%!%g%h%i%j%k%l%m%n%o%p%q%r%",
"# s%t%u%v%w%x%y%z%A%B%C%D%E%F%G%H%I%J%K%L%M%N%O%P%Q%R%S%T%U%V%W%",
"# X%Y%Z%`% &.&+&@&#&$&%&&&*&=&-&;&>&,&'&)&!&~&{&]&^&/&(&_&:&<&[&",
"# }&|&1&2&3&4&5&6&7&8&9&0&a&b&c&d&e&f&g&h&i&j&k&l&m&n&o&p&q&r&s&",
"@ # t&u&v&w&x&y&z&A&B&C&D&E&F&G&H&I&J&K&L&M&N&O&P&Q&l R&} S&# @ ",
"+ # T&@ @ U&V&W&X&Y&Z&`& *.*+*@*#*$*%*&***=*-*;*T&@ R&} @ # # + ",
". ' # >*l ,*'*'*)*S&!*~*{*]*^*/*(*_*:*<*[*}*l @ R&} @.@ ' # ' . ",
". , # # T&|*S&)*S&S&|*1*1*1*1*S&S&S&S&'*,*l @ R&} @ S&# # # , . ",
". . , ' # # # # # # # # # # # # # # # # # # # # # # # # ' , . . ",
". . . . + @ # # # # # # # # # # # # # # # # # # # # @ + . . . . "};
