/* XPM */
static char * VCPIconOver_xpm[] = {
"32 32 763 2",
"  	c None",
". 	c #FFFFFF",
"+ 	c #F5F5F5",
"@ 	c #E8E8E8",
"# 	c #DCDCDC",
"$ 	c #B1CAA9",
"% 	c #64BB51",
"& 	c #60CB50",
"* 	c #CEEECB",
"= 	c #B3D6B2",
"- 	c #37DB3E",
"; 	c #00EE18",
"> 	c #00EE22",
", 	c #FAFAFA",
"' 	c #DEDEDE",
") 	c #DBDBDB",
"! 	c #B4D1A5",
"~ 	c #6CC447",
"{ 	c #2FC901",
"] 	c #24E000",
"^ 	c #1BED00",
"/ 	c #0FC403",
"( 	c #048800",
"_ 	c #00D009",
": 	c #00DC17",
"< 	c #00E021",
"[ 	c #DFDFDF",
"} 	c #EAEAEA",
"| 	c #F2F2F2",
"1 	c #F6F6F6",
"2 	c #F4F4F4",
"3 	c #F3F3F3",
"4 	c #F1F1F1",
"5 	c #F0F0F0",
"6 	c #EFEFEF",
"7 	c #EEEEEE",
"8 	c #E9EBE7",
"9 	c #CDDEBC",
"0 	c #A5D283",
"a 	c #64C129",
"b 	c #40C400",
"c 	c #39D200",
"d 	c #2DE400",
"e 	c #24F300",
"f 	c #18FA00",
"g 	c #0AEE00",
"h 	c #029E00",
"i 	c #00AC08",
"j 	c #00D417",
"k 	c #00E023",
"l 	c #E7E7E7",
"m 	c #F7F7F7",
"n 	c #ECEDEA",
"o 	c #DEE4CB",
"p 	c #C9DA9F",
"q 	c #ADCF6D",
"r 	c #8BC637",
"s 	c #67BF08",
"t 	c #59C400",
"u 	c #51C800",
"v 	c #47CE00",
"w 	c #3FD600",
"x 	c #35E000",
"y 	c #2AE900",
"z 	c #21EF00",
"A 	c #15F500",
"B 	c #09FB00",
"C 	c #02DE04",
"D 	c #008208",
"E 	c #00BE16",
"F 	c #00E726",
"G 	c #F0F0E7",
"H 	c #DEDD91",
"I 	c #D2D669",
"J 	c #BECC42",
"K 	c #ADC422",
"L 	c #97BB02",
"M 	c #8EBE00",
"N 	c #84C200",
"O 	c #79C700",
"P 	c #6CC600",
"Q 	c #5DC400",
"R 	c #53C400",
"S 	c #48C800",
"T 	c #40CF00",
"U 	c #3AD700",
"V 	c #30DE00",
"W 	c #26E200",
"X 	c #1EE600",
"Y 	c #12EE00",
"Z 	c #08FB00",
"` 	c #01E805",
" .	c #00910A",
"..	c #00A914",
"+.	c #00E127",
"@.	c #EBEBEB",
"#.	c #F3F3F0",
"$.	c #E4DD8D",
"%.	c #DDD419",
"&.	c #DCDE00",
"*.	c #C9DB00",
"=.	c #B9D400",
"-.	c #A9CE00",
";.	c #9ACC00",
">.	c #8BC900",
",.	c #7AC400",
"'.	c #6CC200",
").	c #60C900",
"!.	c #58CF00",
"~.	c #50D500",
"{.	c #47D700",
"].	c #3ED400",
"^.	c #33D200",
"/.	c #2AD500",
"(.	c #22D700",
"_.	c #1BDB00",
":.	c #10EA00",
"<.	c #06F700",
"[.	c #01DA06",
"}.	c #00A10D",
"|.	c #009712",
"1.	c #00D526",
"2.	c #E9DD9F",
"3.	c #E5CE21",
"4.	c #EEDE00",
"5.	c #E8E300",
"6.	c #D8E300",
"7.	c #C5DD00",
"8.	c #B2D400",
"9.	c #9BCB00",
"0.	c #86BF00",
"a.	c #7BC800",
"b.	c #77DF00",
"c.	c #72F000",
"d.	c #69F200",
"e.	c #60EE00",
"f.	c #51E700",
"g.	c #46DE00",
"h.	c #3AD200",
"i.	c #2EC700",
"j.	c #25C800",
"k.	c #1FCB00",
"l.	c #18D900",
"m.	c #0EEB00",
"n.	c #05ED00",
"o.	c #01DA07",
"p.	c #009B0E",
"q.	c #007D10",
"r.	c #00C423",
"s.	c #E8DCA5",
"t.	c #F4CF00",
"u.	c #F8E100",
"v.	c #F2E700",
"w.	c #E7E900",
"x.	c #D0E200",
"y.	c #B9D600",
"z.	c #9EC900",
"A.	c #90D100",
"B.	c #90EA00",
"C.	c #8BF600",
"D.	c #7DF300",
"E.	c #68E000",
"F.	c #50B900",
"G.	c #45AD00",
"H.	c #3EB100",
"I.	c #38B400",
"J.	c #32B700",
"K.	c #29BB00",
"L.	c #22C300",
"M.	c #1ECE00",
"N.	c #17DE00",
"O.	c #0CE500",
"P.	c #04E200",
"Q.	c #00D408",
"R.	c #00960E",
"S.	c #00610C",
"T.	c #00B521",
"U.	c #E1C234",
"V.	c #FEDC00",
"W.	c #FAE800",
"X.	c #F1EA00",
"Y.	c #DAE400",
"Z.	c #BDD500",
"`.	c #ABD800",
" +	c #ABF500",
".+	c #A0FB00",
"++	c #8EED00",
"@+	c #76D300",
"#+	c #52A100",
"$+	c #3C8300",
"%+	c #388300",
"&+	c #348B00",
"*+	c #2C8300",
"=+	c #2B8D00",
"-+	c #2DA700",
";+	c #29BC00",
">+	c #21C500",
",+	c #1DD300",
"'+	c #15DD00",
")+	c #0BDB00",
"!+	c #03D801",
"~+	c #00CD09",
"{+	c #00980E",
"]+	c #005D0C",
"^+	c #00AD20",
"/+	c #E7DDB6",
"(+	c #F4CB00",
"_+	c #FDDF00",
":+	c #F6E900",
"<+	c #E0E100",
"[+	c #BCCF00",
"}+	c #A8CF00",
"|+	c #BCFD00",
"1+	c #AFFE00",
"2+	c #94E900",
"3+	c #61A100",
"4+	c #3D6D00",
"5+	c #5BB700",
"6+	c #63DF00",
"7+	c #62F100",
"8+	c #55F300",
"9+	c #49EB00",
"0+	c #35BE00",
"a+	c #248D00",
"b+	c #28BB00",
"c+	c #21C700",
"d+	c #1CCF00",
"e+	c #13D500",
"f+	c #09D300",
"g+	c #03CC01",
"h+	c #00C309",
"i+	c #009B0F",
"j+	c #005B0C",
"k+	c #00A31F",
"l+	c #E3D084",
"m+	c #FCD400",
"n+	c #F9DF00",
"o+	c #E9E000",
"p+	c #C8D100",
"q+	c #B0CD00",
"r+	c #C4FC00",
"s+	c #BCFE00",
"t+	c #A8F300",
"u+	c #80C900",
"v+	c #508500",
"w+	c #5AA300",
"x+	c #6EE400",
"y+	c #6EFD00",
"z+	c #63FB00",
"A+	c #56FE00",
"B+	c #4CFD00",
"C+	c #3CE400",
"D+	c #219600",
"E+	c #219F00",
"F+	c #21C900",
"G+	c #1AC900",
"H+	c #11CB00",
"I+	c #08C800",
"J+	c #02C101",
"K+	c #00BB0A",
"L+	c #009B10",
"M+	c #00610D",
"N+	c #00951D",
"O+	c #DDC560",
"P+	c #F6D100",
"Q+	c #F0DC00",
"R+	c #DAD600",
"S+	c #B7C800",
"T+	c #D0F900",
"U+	c #C6FF00",
"V+	c #B5F400",
"W+	c #9ADF00",
"X+	c #70B000",
"Y+	c #5D9B00",
"Z+	c #6BC400",
"`+	c #73F200",
" @	c #16CA00",
".@	c #009100",
"+@	c #00BA00",
"@@	c #3CEF00",
"#@	c #23A900",
"$@	c #167400",
"%@	c #20C700",
"&@	c #19C800",
"*@	c #10C600",
"=@	c #07C100",
"-@	c #02BB01",
";@	c #00B40A",
">@	c #009610",
",@	c #00620D",
"'@	c #00931D",
")@	c #D7B93C",
"!@	c #EFCC00",
"~@	c #E4D500",
"{@	c #C9CA00",
"]@	c #C3DB00",
"^@	c #D5FF00",
"/@	c #AFEC00",
"(@	c #96D800",
"_@	c #77B900",
":@	c #67C000",
"<@	c #6CE600",
"[@	c #019800",
"}@	c #04C200",
"|@	c #00B100",
"1@	c #3AED00",
"2@	c #21A600",
"3@	c #0D4D00",
"4@	c #1EC100",
"5@	c #0EC100",
"6@	c #07BA00",
"7@	c #02B402",
"8@	c #00AD0A",
"9@	c #008F0F",
"0@	c #005E0D",
"a@	c #00981E",
"b@	c #F1F1F0",
"c@	c #D0AB0F",
"d@	c #E8C900",
"e@	c #D9CD00",
"f@	c #C2C800",
"g@	c #D7F200",
"h@	c #D6FF00",
"i@	c #C1F800",
"j@	c #ABE600",
"k@	c #97D900",
"l@	c #81C900",
"m@	c #579000",
"n@	c #60B200",
"o@	c #64D400",
"p@	c #27F500",
"q@	c #08D500",
"r@	c #07FF00",
"s@	c #33CE00",
"t@	c #197E00",
"u@	c #0C4300",
"v@	c #1EC200",
"w@	c #18C600",
"x@	c #0EBD00",
"y@	c #06B400",
"z@	c #01AE02",
"A@	c #00A70A",
"B@	c #00850E",
"C@	c #009B1F",
"D@	c #E2DED0",
"E@	c #DBB200",
"F@	c #E2C700",
"G@	c #CEC500",
"H@	c #CCD600",
"I@	c #E1FE00",
"J@	c #D6FE00",
"K@	c #BEF300",
"L@	c #A9E200",
"M@	c #9ADB00",
"N@	c #82C900",
"O@	c #63A300",
"P@	c #5CA800",
"Q@	c #59BC00",
"R@	c #5CD700",
"S@	c #54DD00",
"T@	c #4BE200",
"U@	c #3CCC00",
"V@	c #259600",
"W@	c #104D00",
"X@	c #105700",
"Y@	c #1EC500",
"Z@	c #17C500",
"`@	c #0DBB00",
" #	c #06B100",
".#	c #01AA02",
"+#	c #00A00A",
"@#	c #00760D",
"##	c #005F0E",
"$#	c #009D20",
"%#	c #DCCFA1",
"&#	c #E4BC00",
"*#	c #DCC500",
"=#	c #CEC800",
"-#	c #E0F000",
";#	c #E2FF00",
">#	c #D4FC00",
",#	c #BFF200",
"'#	c #AAE300",
")#	c #9DDF00",
"!#	c #88D100",
"~#	c #6BAF00",
"{#	c #4F8F00",
"]#	c #499700",
"^#	c #419700",
"/#	c #399100",
"(#	c #2F8A00",
"_#	c #237600",
":#	c #124700",
"<#	c #092700",
"[#	c #21A700",
"}#	c #0DB800",
"|#	c #05AE00",
"1#	c #01A402",
"2#	c #00960A",
"3#	c #00660B",
"4#	c #00650E",
"5#	c #00981F",
"6#	c #DDC87B",
"7#	c #E7C100",
"8#	c #D4C100",
"9#	c #E1DE00",
"0#	c #ECFC00",
"a#	c #D1F700",
"b#	c #BCED00",
"c#	c #ABE300",
"d#	c #A0E000",
"e#	c #91DD00",
"f#	c #60A800",
"g#	c #397100",
"h#	c #245100",
"i#	c #1B4200",
"j#	c #113000",
"k#	c #0B2400",
"l#	c #123C00",
"m#	c #238C00",
"n#	c #28CA00",
"o#	c #20CE00",
"p#	c #0DB700",
"q#	c #05A900",
"r#	c #019B02",
"s#	c #008B09",
"t#	c #005609",
"u#	c #006A0F",
"v#	c #008E1D",
"w#	c #D5BA54",
"x#	c #E2BF00",
"y#	c #D9CA00",
"z#	c #F4F200",
"A#	c #DDF900",
"B#	c #CBEF00",
"C#	c #B7E500",
"D#	c #ABE200",
"E#	c #A4E500",
"F#	c #97E600",
"G#	c #86DA00",
"H#	c #6FC200",
"I#	c #5BB000",
"J#	c #4BA100",
"K#	c #3D8E00",
"L#	c #348700",
"M#	c #3CB300",
"N#	c #3DCA00",
"O#	c #35D300",
"P#	c #29D300",
"Q#	c #20CF00",
"R#	c #17C400",
"S#	c #0CB500",
"T#	c #05A700",
"U#	c #019602",
"V#	c #007E08",
"W#	c #004908",
"X#	c #007410",
"Y#	c #00891C",
"Z#	c #D0B031",
"`#	c #DDBD00",
" $	c #EDDE00",
".$	c #F9F700",
"+$	c #E8F700",
"@$	c #D6F000",
"#$	c #C2E300",
"$$	c #B4E000",
"%$	c #AEE500",
"&$	c #A8EA00",
"*$	c #9CEC00",
"=$	c #8DE500",
"-$	c #7FDE00",
";$	c #72DB00",
">$	c #65D900",
",$	c #5CD600",
"'$	c #52D400",
")$	c #48D800",
"!$	c #41D900",
"~$	c #36D600",
"{$	c #29D200",
"]$	c #17C200",
"^$	c #0CB300",
"/$	c #059E00",
"($	c #018702",
"_$	c #006B07",
":$	c #003F07",
"<$	c #007911",
"[$	c #00881C",
"}$	c #CCAA1C",
"|$	c #E5C700",
"1$	c #FAEC00",
"2$	c #FBF900",
"3$	c #E9F700",
"4$	c #D3EB00",
"5$	c #C5E500",
"6$	c #BBE700",
"7$	c #B3EB00",
"8$	c #ACEF00",
"9$	c #A1F200",
"0$	c #94F000",
"a$	c #89EE00",
"b$	c #7BEB00",
"c$	c #6CE800",
"d$	c #63E600",
"e$	c #57E400",
"f$	c #4BE100",
"g$	c #42DD00",
"h$	c #36D800",
"i$	c #1FCE00",
"j$	c #16BE00",
"k$	c #0BA600",
"l$	c #048B00",
"m$	c #007302",
"n$	c #005805",
"o$	c #003E07",
"p$	c #006F10",
"q$	c #007217",
"r$	c #DADAD9",
"s$	c #D5AF03",
"t$	c #F6D800",
"u$	c #FEEF00",
"v$	c #F8F500",
"w$	c #C9D400",
"x$	c #CCE300",
"y$	c #CCEC00",
"z$	c #C2EF00",
"A$	c #B8F200",
"B$	c #B1F500",
"C$	c #A5F900",
"D$	c #99F800",
"E$	c #8DF500",
"F$	c #7FF300",
"G$	c #71F200",
"H$	c #68F100",
"I$	c #5CF000",
"J$	c #4FEE00",
"K$	c #45E800",
"L$	c #38E100",
"M$	c #2AD900",
"N$	c #20D100",
"O$	c #15B800",
"P$	c #098300",
"Q$	c #047400",
"R$	c #016201",
"S$	c #004E04",
"T$	c #004507",
"U$	c #00680F",
"V$	c #006615",
"W$	c #D0C9B2",
"X$	c #DDB600",
"Y$	c #FBDD00",
"Z$	c #FBEC00",
"`$	c #E7E300",
" %	c #CFD900",
".%	c #D7EF00",
"+%	c #D2F300",
"@%	c #C7F500",
"#%	c #BDF800",
"$%	c #B5FB00",
"%%	c #A8FD00",
"&%	c #9DFE00",
"*%	c #91FD00",
"=%	c #83FC00",
"-%	c #75FA00",
";%	c #6BF900",
">%	c #5EF700",
",%	c #51F400",
"'%	c #46ED00",
")%	c #39E500",
"!%	c #2ADB00",
"~%	c #1EC900",
"{%	c #108700",
"]%	c #087300",
"^%	c #047500",
"/%	c #015401",
"(%	c #003D03",
"_%	c #00580C",
":%	c #004D0F",
"<%	c #CBB467",
"[%	c #EEC600",
"}%	c #FFE100",
"|%	c #FCED00",
"1%	c #F1EC00",
"2%	c #E6F000",
"3%	c #DDF500",
"4%	c #D7F900",
"5%	c #C9F900",
"6%	c #BEFA00",
"7%	c #A8FE00",
"8%	c #9DFF00",
"9%	c #91FE00",
"0%	c #83FD00",
"a%	c #75FC00",
"b%	c #6CFB00",
"c%	c #5EF800",
"d%	c #43E500",
"e%	c #2FBE00",
"f%	c #1B8D00",
"g%	c #148200",
"h%	c #13A000",
"i%	c #0B9A00",
"j%	c #046800",
"k%	c #003900",
"l%	c #002402",
"m%	c #004807",
"n%	c #00490A",
"o%	c #00420D",
"p%	c #CFA40E",
"q%	c #FBD200",
"r%	c #FFE200",
"s%	c #FFF000",
"t%	c #FDF800",
"u%	c #F4FE00",
"v%	c #E5FF00",
"w%	c #DCFF00",
"x%	c #CEFF00",
"y%	c #C1FF00",
"z%	c #B7FF00",
"A%	c #A8FF00",
"B%	c #9BFD00",
"C%	c #8EF900",
"D%	c #7BEF00",
"E%	c #66DD00",
"F%	c #53C200",
"G%	c #3DA100",
"H%	c #2F8C00",
"I%	c #288400",
"J%	c #269300",
"K%	c #24B100",
"L%	c #1CB000",
"M%	c #139D00",
"N%	c #086D00",
"O%	c #023800",
"P%	c #001E00",
"Q%	c #002702",
"R%	c #003305",
"S%	c #003207",
"T%	c #003109",
"U%	c #B0A064",
"V%	c #A28700",
"W%	c #AC9800",
"X%	c #AAA000",
"Y%	c #ABA700",
"Z%	c #A4AB00",
"`%	c #A1B300",
" &	c #99B100",
".&	c #8DAE00",
"+&	c #83AC00",
"@&	c #7BAC00",
"#&	c #74B000",
"$&	c #67A800",
"%&	c #569500",
"&&	c #4B8D00",
"*&	c #428C00",
"=&	c #429700",
"-&	c #43A800",
";&	c #41BF00",
">&	c #3ABF00",
",&	c #2FB300",
"'&	c #21A200",
")&	c #179100",
"!&	c #0E6F00",
"~&	c #053900",
"{&	c #011C00",
"]&	c #001800",
"^&	c #001D01",
"/&	c #001D03",
"(&	c #001C04",
"_&	c #0C2410",
":&	c #D8D7D1",
"<&	c #A99126",
"[&	c #BDA500",
"}&	c #C8BA00",
"|&	c #C7C100",
"1&	c #C1C500",
"2&	c #B5C600",
"3&	c #AFC800",
"4&	c #A7CA00",
"5&	c #9DCC00",
"6&	c #96CD00",
"7&	c #8DD000",
"8&	c #85D400",
"9&	c #7BD200",
"0&	c #6ECD00",
"a&	c #5FC600",
"b&	c #53BF00",
"c&	c #49B700",
"d&	c #3BAB00",
"e&	c #2F9700",
"f&	c #238300",
"g&	c #176D00",
"h&	c #0E5700",
"i&	c #073400",
"j&	c #021600",
"k&	c #414C40",
"l&	c #5A605A",
"m&	c #3E453E",
"n&	c #1C251D",
"o&	c #545B55",
"p&	c #C8C8C8",
"q&	c #DDDCDB",
"r&	c #A29E87",
"s&	c #7B7534",
"t&	c #6D6800",
"u&	c #808100",
"v&	c #8B9700",
"w&	c #8EA200",
"x&	c #88A300",
"y&	c #7FA300",
"z&	c #78A300",
"A&	c #6FA200",
"B&	c #629B00",
"C&	c #579300",
"D&	c #4C8B00",
"E&	c #408300",
"F&	c #367B00",
"G&	c #2F7200",
"H&	c #236400",
"I&	c #195000",
"J&	c #113D00",
"K&	c #0A2B00",
"L&	c #051A00",
"M&	c #21291F",
"N&	c #A3A5A3",
"O&	c #E9E9E9",
"P&	c #E3E3E3",
"Q&	c #DDDDDD",
"R&	c #C9C8C5",
"S&	c #9E9D8A",
"T&	c #878962",
"U&	c #6A7039",
"V&	c #495213",
"W&	c #354301",
"X&	c #304000",
"Y&	c #2E4000",
"Z&	c #2C4200",
"`&	c #294300",
" *	c #254200",
".*	c #203F00",
"+*	c #1B3B00",
"@*	c #163400",
"#*	c #0F2700",
"$*	c #091A00",
"%*	c #040F00",
"&*	c #282D26",
"**	c #7C7C7B",
"=*	c #E0E0E0",
"-*	c #E6E6E6",
";*	c #E5E5E5",
">*	c #E4E4E4",
",*	c #D3D3D3",
"'*	c #ABABAB",
")*	c #828281",
"!*	c #5A5B58",
"~*	c #33342F",
"{*	c #0A0C07",
"]*	c #12150F",
"^*	c #2D2F29",
"/*	c #454744",
"(*	c #5D5D5C",
"_*	c #767676",
":*	c #B7B7B7",
"<*	c #E1E1E1",
"[*	c #E2E2E2",
". . . . + @ # # # # # # # # # # # # # # # # # # $ % & * = - ; > ",
". . , ' # # # # # # # # # # # # # # # # # ) ! ~ { ] ^ / ( _ : < ",
". , # # [ } | 1 + 2 2 3 | 4 5 5 6 7 8 9 0 a b c d e f g h i j k ",
". ' # l m m 1 + 2 2 3 | 4 n o p q r s t u v w x y z A B C D E F ",
"+ # [ m m 1 + + G H I J K L M N O P Q R S T U V W X Y Z `  ...+.",
"@ # @.m 1 + #.$.%.&.*.=.-.;.>.,.'.).!.~.{.].^./.(._.:.<.[.}.|.1.",
"# # | 1 2 2.3.4.5.6.7.8.9.0.a.b.c.d.e.f.g.h.i.j.k.l.m.n.o.p.q.r.",
"# # 1 1 s.t.u.v.w.x.y.z.A.B.C.D.E.F.G.H.I.J.K.L.M.N.O.P.Q.R.S.T.",
"# # 1 2 U.V.W.X.Y.Z.`. +.+++@+#+$+%+&+*+=+-+;+>+,+'+)+!+~+{+]+^+",
"# # + /+(+_+:+<+[+}+|+1+2+3+4+5+6+7+8+9+0+a+b+c+d+e+f+g+h+i+j+k+",
"# # 2 l+m+n+o+p+q+r+s+t+u+v+w+x+y+z+A+B+C+D+E+F+G+H+I+J+K+L+M+N+",
"# # 2 O+P+Q+R+S+T+U+V+W+X+Y+Z+`+z+ @.@+@@@#@$@%@&@*@=@-@;@>@,@'@",
"# # 3 )@!@~@{@]@^@r+/@(@_@Y+:@<@z+[@}@|@1@2@3@4@&@5@6@7@8@9@0@a@",
"# # b@c@d@e@f@g@h@i@j@k@l@m@n@o@z+p@q@r@s@t@u@v@w@x@y@z@A@B@0@C@",
"# # D@E@F@G@H@I@J@K@L@M@N@O@P@Q@R@S@T@U@V@W@X@Y@Z@`@ #.#+#@###$#",
"# # %#&#*#=#-#;#>#,#'#)#!#~#{#]#^#/#(#_#:#<#[#k.Z@}#|#1#2#3#4#5#",
"# # 6#7#8#9#0#;#a#b#c#d#e#O f#g#h#i#j#k#l#m#n#o#Z@p#q#r#s#t#u#v#",
"# # w#x#y#z#0#A#B#C#D#E#F#G#H#I#J#K#L#M#N#O#P#Q#R#S#T#U#V#W#X#Y#",
"# # Z#`# $.$+$@$#$$$%$&$*$=$-$;$>$,$'$)$!$~${$o#]$^$/$($_$:$<$[$",
"# # }$|$1$2$3$4$5$6$7$8$9$0$a$b$c$d$e$f$g$h$P#i$j$k$l$m$n$o$p$q$",
"# r$s$t$u$v$w$x$y$z$A$B$C$D$E$F$G$H$I$J$K$L$M$N$O$P$Q$R$S$T$U$V$",
"# W$X$Y$Z$`$ %.%+%@%#%$%%%&%*%=%-%;%>%,%'%)%!%~%{%]%^%/%(%W#_%:%",
"# <%[%}%|%1%2%3%4%5%6%$%7%8%9%0%a%b%c%,%d%e%f%g%h%i%j%k%l%m%n%o%",
"# p%q%r%s%t%u%v%w%x%y%z%A%B%C%D%E%F%G%H%I%J%K%L%M%N%O%P%Q%R%S%T%",
"# U%V%W%X%Y%Z%`% &.&+&@&#&$&%&&&*&=&-&;&>&,&'&)&!&~&{&]&^&/&(&_&",
"# :&<&[&}&|&1&2&3&4&5&6&7&8&9&0&a&b&c&d&e&f&g&h&i&j&k&l&m&n&o&p&",
"@ # q&r&s&t&u&v&w&x&y&z&A&B&C&D&E&F&G&H&I&J&K&L&M&N&l O&} P&# @ ",
"+ # Q&@ @ R&S&T&U&V&W&X&Y&Z&`& *.*+*@*#*$*%*&***Q&@ O&} @ # # + ",
". ' # =*l -*;*;*>*P&,*'*)*!*~*{*]*^*/*(*_*:*l @ O&} @.@ ' # ' . ",
". , # # Q&<*P&>*P&P&<*[*[*[*[*P&P&P&P&;*-*l @ O&} @ P&# # # , . ",
". . , ' # # # # # # # # # # # # # # # # # # # # # # # # ' , . . ",
". . . . + @ # # # # # # # # # # # # # # # # # # # # @ + . . . . "};
